<svg width="330" height="126" viewBox="0 0 330 126" fill="none" xmlns="http://www.w3.org/2000/svg">
    <g clip-path="url(#clip0)">
        <rect width="330" height="126" fill="white"/>
        <path fill-rule="evenodd" clip-rule="evenodd" d="M121.777 62.4362H134.092C136.266 56.5973 142.785 54.4077 147.856 54.4077C157.274 54.4077 160.172 60.2466 160.172 65.3557C126.256 69.1836 118.155 75.5738 120.328 93.0906C122.796 112.977 150.754 109.877 161.62 97.4698V108H173.936V65.3557C173.936 50.0285 164.699 42 147.856 42C121.777 42 121.777 62.4362 121.777 62.4362ZM160.172 76.3037C159.84 85.5653 158.372 89.4336 152.927 93.0906C144.234 98.9295 135.541 96.7399 133.368 90.901C131.195 85.0621 135.278 82.2312 139.888 80.6829C144.234 79.2231 152.247 77.4611 160.172 76.3037Z" fill="#0601FF"/>
        <path fill-rule="evenodd" clip-rule="evenodd" d="M211.101 108H213.779V66.0856C213.779 60.9765 215.928 54.4077 226.819 54.4077C232.614 54.4077 236.96 59.5168 236.96 64.6258V108H250V60.2466C250 48.5688 236.96 42 231.165 42C220.202 42 215.072 47.2236 211.483 50.8774C211.278 51.0866 211.077 51.2906 210.881 51.4882L210.383 51.1204C205.988 44.0971 199.202 42.1342 193.715 42.1342C182.124 42.1342 176.328 45.0536 170.205 50.8926L162.564 56.0016V108H176.328V66.2197C176.328 61.1107 178.502 54.5419 189.368 54.5419C193.715 54.5419 199.51 58.1912 199.51 63.3003V108H211.101V108Z" fill="#0601FF"/>
        <path fill-rule="evenodd" clip-rule="evenodd" d="M68.6835 24H54V108H68.6835V67.7084C70.8623 60.5795 75.5564 56.421 83.367 56.421C91.443 56.421 98.0506 63.7894 98.0506 70.421V108H112V65.9999C112 57.1578 103.924 45.3683 89.9746 43.8946C81.9365 43.0454 74.3063 45.6849 68.6835 51.183V24Z" fill="#0601FF"/>
        <path fill-rule="evenodd" clip-rule="evenodd" d="M267 36C271.971 36 276 31.9706 276 27C276 22.0294 271.971 18 267 18C262.029 18 258 22.0294 258 27C258 31.9706 262.029 36 267 36ZM274 108V42H260V108H274Z" fill="#0601FF"/>
        <path d="M301.156 112.808C304.768 112.808 307.624 111.758 309.724 109.658C311.852 107.558 312.916 104.688 312.916 101.048V75.806C312.916 75.19 313.084 74.658 313.42 74.21L317.158 68.918C317.69 68.106 317.956 67.21 317.956 66.23C317.956 65.25 317.69 64.354 317.158 63.542L313.42 58.25C313.084 57.69 312.916 57.158 312.916 56.654V31.412C312.916 27.8 311.852 24.944 309.724 22.844C307.624 20.716 304.768 19.652 301.156 19.652H295.444V29.186H300.442C301.254 29.186 301.94 29.48 302.5 30.068C303.088 30.628 303.382 31.314 303.382 32.126V56.654C303.382 59.258 304.138 61.638 305.65 63.794L307.456 66.23L305.65 68.666C304.138 70.85 303.382 73.23 303.382 75.806V100.376C303.382 101.188 303.088 101.874 302.5 102.434C301.94 103.022 301.254 103.316 300.442 103.316H295.444V112.808H301.156Z" fill="#24243E"/>
        <path d="M309.724 109.658L308.741 108.661L308.734 108.668L309.724 109.658ZM313.42 74.21L314.54 75.05L314.552 75.034L314.564 75.0177L313.42 74.21ZM317.158 68.918L318.302 69.7257L318.316 69.7057L318.329 69.6852L317.158 68.918ZM317.158 63.542L318.329 62.7748L318.316 62.7543L318.302 62.7343L317.158 63.542ZM313.42 58.25L312.22 58.9703L312.246 59.0151L312.276 59.0577L313.42 58.25ZM309.724 22.844L308.728 23.8274L308.734 23.834L308.741 23.8405L309.724 22.844ZM295.444 19.652V18.252H294.044V19.652H295.444ZM295.444 29.186H294.044V30.586H295.444V29.186ZM302.5 30.068L301.486 31.0335L301.51 31.0582L301.534 31.0818L302.5 30.068ZM305.65 63.794L304.504 64.5978L304.514 64.613L304.525 64.6278L305.65 63.794ZM307.456 66.23L308.581 67.0638L309.199 66.23L308.581 65.3962L307.456 66.23ZM305.65 68.666L304.525 67.8322L304.512 67.8504L304.499 67.8691L305.65 68.666ZM302.5 102.434L301.534 101.42L301.51 101.444L301.486 101.468L302.5 102.434ZM295.444 103.316V101.916H294.044V103.316H295.444ZM295.444 112.808H294.044V114.208H295.444V112.808ZM301.156 114.208C305.054 114.208 308.297 113.065 310.714 110.648L308.734 108.668C306.951 110.451 304.482 111.408 301.156 111.408V114.208ZM310.707 110.654C313.158 108.236 314.316 104.976 314.316 101.048H311.516C311.516 104.4 310.546 106.88 308.741 108.662L310.707 110.654ZM314.316 101.048V75.806H311.516V101.048H314.316ZM314.316 75.806C314.316 75.4609 314.404 75.2313 314.54 75.05L312.3 73.37C311.764 74.0847 311.516 74.9191 311.516 75.806H314.316ZM314.564 75.0177L318.302 69.7257L316.014 68.1103L312.276 73.4023L314.564 75.0177ZM318.329 69.6852C319.012 68.6429 319.356 67.4798 319.356 66.23H316.556C316.556 66.9402 316.368 67.5691 315.987 68.1508L318.329 69.6852ZM319.356 66.23C319.356 64.9802 319.012 63.8171 318.329 62.7748L315.987 64.3092C316.368 64.8909 316.556 65.5198 316.556 66.23H319.356ZM318.302 62.7343L314.564 57.4423L312.276 59.0577L316.014 64.3497L318.302 62.7343ZM314.62 57.5297C314.377 57.1242 314.316 56.8396 314.316 56.654H311.516C311.516 57.4764 311.791 58.2558 312.22 58.9703L314.62 57.5297ZM314.316 56.654V31.412H311.516V56.654H314.316ZM314.316 31.412C314.316 27.5089 313.156 24.2639 310.707 21.8475L308.741 23.8405C310.548 25.6241 311.516 28.0911 311.516 31.412H314.316ZM310.72 21.8606C308.304 19.412 305.059 18.252 301.156 18.252V21.052C304.477 21.052 306.944 22.02 308.728 23.8274L310.72 21.8606ZM301.156 18.252H295.444V21.052H301.156V18.252ZM294.044 19.652V29.186H296.844V19.652H294.044ZM295.444 30.586H300.442V27.786H295.444V30.586ZM300.442 30.586C300.871 30.586 301.19 30.723 301.486 31.0335L303.514 29.1025C302.69 28.237 301.637 27.786 300.442 27.786V30.586ZM301.534 31.0818C301.845 31.3776 301.982 31.6971 301.982 32.126H304.782C304.782 30.9308 304.331 29.8784 303.466 29.0542L301.534 31.0818ZM301.982 32.126V56.654H304.782V32.126H301.982ZM301.982 56.654C301.982 59.5491 302.829 62.2092 304.504 64.5978L306.796 62.9902C305.447 61.0668 304.782 58.9669 304.782 56.654H301.982ZM304.525 64.6278L306.331 67.0638L308.581 65.3962L306.775 62.9602L304.525 64.6278ZM306.331 65.3962L304.525 67.8322L306.775 69.4998L308.581 67.0638L306.331 65.3962ZM304.499 67.8691C302.83 70.2795 301.982 72.9359 301.982 75.806H304.782C304.782 73.5241 305.446 71.4205 306.801 69.4629L304.499 67.8691ZM301.982 75.806V100.376H304.782V75.806H301.982ZM301.982 100.376C301.982 100.805 301.845 101.124 301.534 101.42L303.466 103.448C304.331 102.624 304.782 101.571 304.782 100.376H301.982ZM301.486 101.468C301.19 101.779 300.871 101.916 300.442 101.916V104.716C301.637 104.716 302.69 104.265 303.514 103.4L301.486 101.468ZM300.442 101.916H295.444V104.716H300.442V101.916ZM294.044 103.316V112.808H296.844V103.316H294.044ZM295.444 114.208H301.156V111.408H295.444V114.208Z" fill="#281B43"/>
        <path d="M28.844 112.808C25.232 112.808 22.376 111.758 20.276 109.658C18.148 107.558 17.084 104.688 17.084 101.048V75.806C17.084 75.19 16.916 74.658 16.58 74.21L12.842 68.918C12.31 68.106 12.044 67.21 12.044 66.23C12.044 65.25 12.31 64.354 12.842 63.542L16.58 58.25C16.916 57.69 17.084 57.158 17.084 56.654V31.412C17.084 27.8 18.148 24.944 20.276 22.844C22.376 20.716 25.232 19.652 28.844 19.652H34.556V29.186H29.558C28.746 29.186 28.06 29.48 27.5 30.068C26.912 30.628 26.618 31.314 26.618 32.126V56.654C26.618 59.258 25.862 61.638 24.35 63.794L22.544 66.23L24.35 68.666C25.862 70.85 26.618 73.23 26.618 75.806V100.376C26.618 101.188 26.912 101.874 27.5 102.434C28.06 103.022 28.746 103.316 29.558 103.316H34.556V112.808H28.844Z" fill="#24243E"/>
        <path d="M20.276 109.658L21.2594 108.661L21.2659 108.668L20.276 109.658ZM16.58 74.21L15.46 75.05L15.448 75.034L15.4365 75.0177L16.58 74.21ZM12.842 68.918L11.6985 69.7257L11.6844 69.7057L11.671 69.6852L12.842 68.918ZM12.842 63.542L11.671 62.7748L11.6844 62.7543L11.6985 62.7343L12.842 63.542ZM16.58 58.25L17.7805 58.9703L17.7536 59.0151L17.7235 59.0577L16.58 58.25ZM20.276 22.844L21.2725 23.8274L21.266 23.834L21.2594 23.8405L20.276 22.844ZM34.556 19.652V18.252H35.956V19.652H34.556ZM34.556 29.186H35.956V30.586H34.556V29.186ZM27.5 30.068L28.5138 31.0335L28.4902 31.0582L28.4655 31.0818L27.5 30.068ZM24.35 63.794L25.4962 64.5978L25.4856 64.613L25.4746 64.6278L24.35 63.794ZM22.544 66.23L21.4194 67.0638L20.8012 66.23L21.4194 65.3962L22.544 66.23ZM24.35 68.666L25.4746 67.8322L25.4882 67.8504L25.5011 67.8691L24.35 68.666ZM27.5 102.434L28.4655 101.42L28.4902 101.444L28.5138 101.468L27.5 102.434ZM34.556 103.316V101.916H35.956V103.316H34.556ZM34.556 112.808H35.956V114.208H34.556V112.808ZM28.844 114.208C24.9463 114.208 21.7035 113.065 19.286 110.648L21.2659 108.668C23.0485 110.451 25.5177 111.408 28.844 111.408V114.208ZM19.2926 110.654C16.8419 108.236 15.684 104.976 15.684 101.048H18.484C18.484 104.4 19.4541 106.88 21.2594 108.662L19.2926 110.654ZM15.684 101.048V75.806H18.484V101.048H15.684ZM15.684 75.806C15.684 75.4609 15.596 75.2313 15.46 75.05L17.7 73.37C18.236 74.0847 18.484 74.9191 18.484 75.806H15.684ZM15.4365 75.0177L11.6985 69.7257L13.9855 68.1103L17.7235 73.4023L15.4365 75.0177ZM11.671 69.6852C10.9881 68.6429 10.644 67.4798 10.644 66.23H13.444C13.444 66.9402 13.6319 67.5691 14.013 68.1508L11.671 69.6852ZM10.644 66.23C10.644 64.9802 10.9881 63.8171 11.671 62.7748L14.013 64.3092C13.6319 64.8909 13.444 65.5198 13.444 66.23H10.644ZM11.6985 62.7343L15.4365 57.4423L17.7235 59.0577L13.9855 64.3497L11.6985 62.7343ZM15.3795 57.5297C15.6228 57.1242 15.684 56.8396 15.684 56.654H18.484C18.484 57.4764 18.2092 58.2558 17.7805 58.9703L15.3795 57.5297ZM15.684 56.654V31.412H18.484V56.654H15.684ZM15.684 31.412C15.684 27.5089 16.844 24.2639 19.2926 21.8475L21.2594 23.8405C19.452 25.6241 18.484 28.0911 18.484 31.412H15.684ZM19.2795 21.8606C21.6959 19.412 24.9409 18.252 28.844 18.252V21.052C25.5231 21.052 23.0561 22.02 21.2725 23.8274L19.2795 21.8606ZM28.844 18.252H34.556V21.052H28.844V18.252ZM35.956 19.652V29.186H33.156V19.652H35.956ZM34.556 30.586H29.558V27.786H34.556V30.586ZM29.558 30.586C29.1291 30.586 28.8096 30.723 28.5138 31.0335L26.4862 29.1025C27.3104 28.237 28.3629 27.786 29.558 27.786V30.586ZM28.4655 31.0818C28.155 31.3776 28.018 31.6971 28.018 32.126H25.218C25.218 30.9308 25.669 29.8784 26.5345 29.0542L28.4655 31.0818ZM28.018 32.126V56.654H25.218V32.126H28.018ZM28.018 56.654C28.018 59.5491 27.1714 62.2092 25.4962 64.5978L23.2038 62.9902C24.5526 61.0668 25.218 58.9669 25.218 56.654H28.018ZM25.4746 64.6278L23.6686 67.0638L21.4194 65.3962L23.2254 62.9602L25.4746 64.6278ZM23.6686 65.3962L25.4746 67.8322L23.2254 69.4998L21.4194 67.0638L23.6686 65.3962ZM25.5011 67.8691C27.1698 70.2795 28.018 72.9359 28.018 75.806H25.218C25.218 73.5241 24.5542 71.4205 23.1989 69.4629L25.5011 67.8691ZM28.018 75.806V100.376H25.218V75.806H28.018ZM28.018 100.376C28.018 100.805 28.155 101.124 28.4655 101.42L26.5345 103.448C25.669 102.624 25.218 101.571 25.218 100.376H28.018ZM28.5138 101.468C28.8096 101.779 29.1291 101.916 29.558 101.916V104.716C28.3629 104.716 27.3104 104.265 26.4862 103.4L28.5138 101.468ZM29.558 101.916H34.556V104.716H29.558V101.916ZM35.956 103.316V112.808H33.156V103.316H35.956ZM34.556 114.208H28.844V111.408H34.556V114.208Z" fill="#281B43"/>
    </g>
    <defs>
        <clipPath id="clip0">
            <rect width="330" height="126" fill="white"/>
        </clipPath>
    </defs>
</svg>
